<svg xmlns="http://www.w3.org/2000/svg" xmlns:xlink="http://www.w3.org/1999/xlink" width="500" zoomAndPan="magnify" viewBox="0 0 375 374.999991" height="500" preserveAspectRatio="xMidYMid meet" version="1.0"><defs><clipPath id="2065874181"><path d="M 161 88.058594 L 290.996094 88.058594 L 290.996094 218 L 161 218 Z M 161 88.058594 " clip-rule="nonzero"/></clipPath><clipPath id="47baa1227c"><path d="M 91.496094 157 L 222 157 L 222 286.808594 L 91.496094 286.808594 Z M 91.496094 157 " clip-rule="nonzero"/></clipPath></defs><g clip-path="url(#2065874181)"><path fill="#00bf63" d="M 291.042969 187.691406 C 291.042969 204.222656 277.664062 217.605469 261.132812 217.605469 L 199.871094 217.605469 C 178.695312 217.605469 161.5 200.410156 161.5 179.234375 L 161.5 117.972656 C 161.5 101.4375 174.878906 88.058594 191.410156 88.058594 C 207.941406 88.058594 221.324219 101.4375 221.324219 117.972656 L 221.324219 157.78125 L 261.132812 157.78125 C 277.664062 157.78125 291.042969 171.214844 291.042969 187.691406 Z M 291.042969 187.691406 " fill-opacity="1" fill-rule="nonzero"/></g><g clip-path="url(#47baa1227c)"><path fill="#7ed957" d="M 91.558594 187.304688 C 91.558594 170.773438 104.9375 157.394531 121.46875 157.394531 L 182.730469 157.394531 C 203.90625 157.394531 221.101562 174.589844 221.101562 195.765625 L 221.101562 257.027344 C 221.101562 273.558594 207.722656 286.9375 191.191406 286.9375 C 174.660156 286.9375 161.277344 273.558594 161.277344 257.027344 L 161.277344 217.21875 L 121.46875 217.21875 C 104.9375 217.21875 91.558594 203.835938 91.558594 187.304688 Z M 91.558594 187.304688 " fill-opacity="1" fill-rule="nonzero"/></g><path fill="#228b22" d="M 221.101562 195.765625 L 221.101562 217.605469 L 199.871094 217.605469 C 178.695312 217.605469 161.5 200.410156 161.5 179.234375 L 161.5 157.394531 L 182.730469 157.394531 C 203.90625 157.394531 221.101562 174.589844 221.101562 195.765625 Z M 221.101562 195.765625 " fill-opacity="1" fill-rule="nonzero"/></svg>