<svg xmlns="http://www.w3.org/2000/svg" xmlns:xlink="http://www.w3.org/1999/xlink" width="500" zoomAndPan="magnify" viewBox="0 0 375 374.999991" height="500" preserveAspectRatio="xMidYMid meet" version="1.0"><defs><clipPath id="4ef9c66cdf"><path d="M 180 142.3125 L 239.859375 142.3125 L 239.859375 202 L 180 202 Z M 180 142.3125 " clip-rule="nonzero"/></clipPath><clipPath id="2611da9062"><path d="M 149.109375 173 L 209 173 L 209 233 L 149.109375 233 Z M 149.109375 173 " clip-rule="nonzero"/></clipPath></defs><g clip-path="url(#4ef9c66cdf)"><path fill="#00bf63" d="M 239.785156 187.585938 C 239.785156 195.101562 233.707031 201.179688 226.191406 201.179688 L 198.355469 201.179688 C 188.730469 201.179688 180.917969 193.367188 180.917969 183.742188 L 180.917969 155.90625 C 180.917969 148.390625 187 142.3125 194.511719 142.3125 C 202.023438 142.3125 208.101562 148.390625 208.101562 155.90625 L 208.101562 173.996094 L 226.191406 173.996094 C 233.707031 173.996094 239.785156 180.101562 239.785156 187.585938 Z M 239.785156 187.585938 " fill-opacity="1" fill-rule="nonzero"/></g><g clip-path="url(#2611da9062)"><path fill="#7ed957" d="M 149.132812 187.410156 C 149.132812 179.898438 155.214844 173.820312 162.726562 173.820312 L 190.566406 173.820312 C 200.1875 173.820312 208.003906 181.632812 208.003906 191.253906 L 208.003906 219.09375 C 208.003906 226.605469 201.921875 232.6875 194.410156 232.6875 C 186.898438 232.6875 180.816406 226.605469 180.816406 219.09375 L 180.816406 201.003906 L 162.726562 201.003906 C 155.214844 201.003906 149.132812 194.925781 149.132812 187.410156 Z M 149.132812 187.410156 " fill-opacity="1" fill-rule="nonzero"/></g><path fill="#228b22" d="M 208.003906 191.253906 L 208.003906 201.179688 L 198.355469 201.179688 C 188.730469 201.179688 180.917969 193.367188 180.917969 183.742188 L 180.917969 173.820312 L 190.566406 173.820312 C 200.1875 173.820312 208.003906 181.632812 208.003906 191.253906 Z M 208.003906 191.253906 " fill-opacity="1" fill-rule="nonzero"/></svg>