<svg xmlns="http://www.w3.org/2000/svg" xmlns:xlink="http://www.w3.org/1999/xlink" width="500" zoomAndPan="magnify" viewBox="0 0 375 374.999991" height="500" preserveAspectRatio="xMidYMid meet" version="1.0"><defs><clipPath id="ee1918617b"><path d="M 143 42.074219 L 333.292969 42.074219 L 333.292969 232 L 143 232 Z M 143 42.074219 " clip-rule="nonzero"/></clipPath><clipPath id="113cc5583b"><path d="M 41.542969 143 L 232 143 L 232 333 L 41.542969 333 Z M 41.542969 143 " clip-rule="nonzero"/></clipPath></defs><rect x="-37.5" width="450" fill="#ffffff" y="-37.499999" height="449.999989" fill-opacity="1"/><rect x="-37.5" width="450" fill="#ffffff" y="-37.499999" height="449.999989" fill-opacity="1"/><g clip-path="url(#ee1918617b)"><path fill="#00bf63" d="M 333.363281 187.78125 C 333.363281 211.957031 313.796875 231.523438 289.617188 231.523438 L 200.027344 231.523438 C 169.058594 231.523438 143.910156 206.378906 143.910156 175.410156 L 143.910156 85.820312 C 143.910156 61.640625 163.480469 42.074219 187.65625 42.074219 C 211.832031 42.074219 231.402344 61.640625 231.402344 85.820312 L 231.402344 144.035156 L 289.617188 144.035156 C 313.796875 144.035156 333.363281 163.683594 333.363281 187.78125 Z M 333.363281 187.78125 " fill-opacity="1" fill-rule="nonzero"/></g><g clip-path="url(#113cc5583b)"><path fill="#7ed957" d="M 41.625 187.214844 C 41.625 163.039062 61.195312 143.46875 85.371094 143.46875 L 174.960938 143.46875 C 205.929688 143.46875 231.078125 168.617188 231.078125 199.585938 L 231.078125 289.175781 C 231.078125 313.355469 211.507812 332.921875 187.332031 332.921875 C 163.15625 332.921875 143.589844 313.355469 143.589844 289.175781 L 143.589844 230.960938 L 85.371094 230.960938 C 61.195312 230.960938 41.625 211.390625 41.625 187.214844 Z M 41.625 187.214844 " fill-opacity="1" fill-rule="nonzero"/></g><path fill="#228b22" d="M 231.078125 199.585938 L 231.078125 231.523438 L 200.027344 231.523438 C 169.058594 231.523438 143.910156 206.378906 143.910156 175.410156 L 143.910156 143.46875 L 174.960938 143.46875 C 205.929688 143.46875 231.078125 168.617188 231.078125 199.585938 Z M 231.078125 199.585938 " fill-opacity="1" fill-rule="nonzero"/></svg>