<svg xmlns="http://www.w3.org/2000/svg" xmlns:xlink="http://www.w3.org/1999/xlink" width="500" zoomAndPan="magnify" viewBox="0 0 375 374.999991" height="500" preserveAspectRatio="xMidYMid meet" version="1.0"><defs><g/><clipPath id="2918de0881"><path d="M 55 153.09375 L 122.15625 153.09375 L 122.15625 220 L 55 220 Z M 55 153.09375 " clip-rule="nonzero"/></clipPath><clipPath id="e32bf514a7"><path d="M 20.15625 188 L 87 188 L 87 255 L 20.15625 255 Z M 20.15625 188 " clip-rule="nonzero"/></clipPath></defs><g clip-path="url(#2918de0881)"><path fill="#00bf63" d="M 122.121094 204.003906 C 122.121094 212.453125 115.285156 219.289062 106.835938 219.289062 L 75.535156 219.289062 C 64.710938 219.289062 55.925781 210.503906 55.925781 199.683594 L 55.925781 168.378906 C 55.925781 159.929688 62.761719 153.09375 71.210938 153.09375 C 79.660156 153.09375 86.496094 159.929688 86.496094 168.378906 L 86.496094 188.722656 L 106.835938 188.722656 C 115.285156 188.722656 122.121094 195.585938 122.121094 204.003906 Z M 122.121094 204.003906 " fill-opacity="1" fill-rule="nonzero"/></g><g clip-path="url(#e32bf514a7)"><path fill="#7ed957" d="M 20.1875 203.808594 C 20.1875 195.359375 27.023438 188.523438 35.472656 188.523438 L 66.773438 188.523438 C 77.597656 188.523438 86.382812 197.308594 86.382812 208.128906 L 86.382812 239.433594 C 86.382812 247.882812 79.546875 254.71875 71.097656 254.71875 C 62.648438 254.71875 55.8125 247.882812 55.8125 239.433594 L 55.8125 219.09375 L 35.472656 219.09375 C 27.023438 219.09375 20.1875 212.253906 20.1875 203.808594 Z M 20.1875 203.808594 " fill-opacity="1" fill-rule="nonzero"/></g><path fill="#228b22" d="M 86.382812 208.128906 L 86.382812 219.289062 L 75.535156 219.289062 C 64.710938 219.289062 55.925781 210.503906 55.925781 199.683594 L 55.925781 188.523438 L 66.773438 188.523438 C 77.597656 188.523438 86.382812 197.308594 86.382812 208.128906 Z M 86.382812 208.128906 " fill-opacity="1" fill-rule="nonzero"/><g fill="#228b22" fill-opacity="1"><g transform="translate(131.008765, 195.714109)"><g><path d="M 3.796875 -29.515625 L 10.125 -29.515625 L 10.125 -17.921875 L 22.765625 -17.921875 L 22.765625 -29.515625 L 29.09375 -29.515625 L 29.09375 0 L 22.765625 0 L 22.765625 -12.015625 L 10.125 -12.015625 L 10.125 0 L 3.796875 0 Z M 3.796875 -29.515625 "/></g></g></g><g fill="#228b22" fill-opacity="1"><g transform="translate(163.05655, 195.714109)"><g><path d="M 12.4375 0.421875 C 10.914062 0.421875 9.488281 0.140625 8.15625 -0.421875 C 6.820312 -0.984375 5.65625 -1.753906 4.65625 -2.734375 C 3.65625 -3.722656 2.875 -4.863281 2.3125 -6.15625 C 1.75 -7.445312 1.46875 -8.835938 1.46875 -10.328125 C 1.46875 -11.796875 1.75 -13.179688 2.3125 -14.484375 C 2.875 -15.796875 3.644531 -16.941406 4.625 -17.921875 C 5.613281 -18.910156 6.753906 -19.6875 8.046875 -20.25 C 9.347656 -20.8125 10.742188 -21.09375 12.234375 -21.09375 C 13.660156 -21.09375 15 -20.816406 16.25 -20.265625 C 17.507812 -19.710938 18.601562 -18.972656 19.53125 -18.046875 C 20.457031 -17.117188 21.191406 -16.03125 21.734375 -14.78125 C 22.285156 -13.53125 22.5625 -12.1875 22.5625 -10.75 C 22.5625 -10.351562 22.546875 -10.007812 22.515625 -9.71875 C 22.492188 -9.425781 22.46875 -9.164062 22.4375 -8.9375 C 22.40625 -8.65625 22.375 -8.414062 22.34375 -8.21875 L 7.375 -8.21875 C 7.6875 -7.269531 8.285156 -6.4375 9.171875 -5.71875 C 10.054688 -5 11.285156 -4.640625 12.859375 -4.640625 C 13.765625 -4.640625 14.550781 -4.75 15.21875 -4.96875 C 15.894531 -5.195312 16.472656 -5.46875 16.953125 -5.78125 C 17.484375 -6.113281 17.945312 -6.503906 18.34375 -6.953125 L 21.296875 -2.953125 C 20.679688 -2.335938 19.921875 -1.773438 19.015625 -1.265625 C 18.253906 -0.835938 17.328125 -0.445312 16.234375 -0.09375 C 15.140625 0.25 13.875 0.421875 12.4375 0.421875 Z M 16.65625 -12.4375 C 16.34375 -13.394531 15.785156 -14.234375 14.984375 -14.953125 C 14.191406 -15.671875 13.203125 -16.03125 12.015625 -16.03125 C 10.835938 -16.03125 9.847656 -15.671875 9.046875 -14.953125 C 8.242188 -14.234375 7.6875 -13.394531 7.375 -12.4375 Z M 16.65625 -12.4375 "/></g></g></g><g fill="#228b22" fill-opacity="1"><g transform="translate(186.248999, 195.714109)"><g><path d="M 8.015625 0.421875 C 7.054688 0.421875 6.191406 0.273438 5.421875 -0.015625 C 4.648438 -0.316406 3.988281 -0.734375 3.4375 -1.265625 C 2.882812 -1.796875 2.453125 -2.421875 2.140625 -3.140625 C 1.835938 -3.859375 1.6875 -4.640625 1.6875 -5.484375 C 1.6875 -7.171875 2.226562 -8.609375 3.3125 -9.796875 C 4.394531 -10.992188 5.890625 -11.765625 7.796875 -12.109375 L 14.34375 -13.28125 C 14.226562 -14.007812 13.867188 -14.648438 13.265625 -15.203125 C 12.660156 -15.753906 11.820312 -16.03125 10.75 -16.03125 C 10.019531 -16.03125 9.363281 -15.910156 8.78125 -15.671875 C 8.207031 -15.429688 7.726562 -15.15625 7.34375 -14.84375 C 6.863281 -14.507812 6.453125 -14.128906 6.109375 -13.703125 L 2.734375 -17.078125 C 3.328125 -17.804688 4.046875 -18.46875 4.890625 -19.0625 C 5.617188 -19.570312 6.503906 -20.035156 7.546875 -20.453125 C 8.585938 -20.878906 9.796875 -21.09375 11.171875 -21.09375 C 12.492188 -21.09375 13.695312 -20.878906 14.78125 -20.453125 C 15.863281 -20.035156 16.796875 -19.453125 17.578125 -18.703125 C 18.367188 -17.953125 18.972656 -17.078125 19.390625 -16.078125 C 19.816406 -15.085938 20.03125 -14.015625 20.03125 -12.859375 L 20.03125 0 L 14.34375 0 L 14.34375 -2.53125 L 14.125 -2.53125 C 13.675781 -1.96875 13.15625 -1.472656 12.5625 -1.046875 C 12.0625 -0.660156 11.421875 -0.316406 10.640625 -0.015625 C 9.867188 0.273438 8.992188 0.421875 8.015625 0.421875 Z M 9.90625 -4.21875 C 11.175781 -4.21875 12.234375 -4.644531 13.078125 -5.5 C 13.921875 -6.363281 14.34375 -7.484375 14.34375 -8.859375 L 14.34375 -9.28125 L 9.703125 -8.4375 C 8.972656 -8.289062 8.398438 -8.035156 7.984375 -7.671875 C 7.578125 -7.304688 7.375 -6.859375 7.375 -6.328125 C 7.375 -5.679688 7.582031 -5.164062 8 -4.78125 C 8.425781 -4.40625 9.0625 -4.21875 9.90625 -4.21875 Z M 9.90625 -4.21875 "/></g></g></g><g fill="#228b22" fill-opacity="1"><g transform="translate(208.176411, 195.714109)"><g><path d="M 2.953125 -29.515625 L 8.640625 -29.515625 L 8.640625 0 L 2.953125 0 Z M 2.953125 -29.515625 "/></g></g></g><g fill="#228b22" fill-opacity="1"><g transform="translate(218.929229, 195.714109)"><g><path d="M 11.390625 0.421875 C 9.273438 0.421875 7.582031 -0.226562 6.3125 -1.53125 C 5.050781 -2.84375 4.421875 -4.722656 4.421875 -7.171875 L 4.421875 -14.96875 L 0.84375 -14.96875 L 0.84375 -20.25 L 2.734375 -20.25 C 4.285156 -20.25 5.0625 -21.085938 5.0625 -22.765625 L 5.0625 -26.5625 L 10.125 -26.5625 L 10.125 -20.25 L 14.765625 -20.25 L 14.765625 -14.96875 L 10.125 -14.96875 L 10.125 -8.015625 C 10.125 -7.054688 10.367188 -6.320312 10.859375 -5.8125 C 11.347656 -5.3125 12.015625 -5.0625 12.859375 -5.0625 C 13.484375 -5.0625 14.03125 -5.128906 14.5 -5.265625 C 14.757812 -5.328125 14.988281 -5.398438 15.1875 -5.484375 L 15.1875 -0.203125 C 14.84375 -0.0976562 14.472656 0.0078125 14.078125 0.125 C 13.742188 0.207031 13.34375 0.273438 12.875 0.328125 C 12.414062 0.390625 11.921875 0.421875 11.390625 0.421875 Z M 11.390625 0.421875 "/></g></g></g><g fill="#228b22" fill-opacity="1"><g transform="translate(234.953079, 195.714109)"><g><path d="M 2.953125 -29.515625 L 8.640625 -29.515625 L 8.640625 -17.71875 L 8.859375 -17.71875 C 9.304688 -18.332031 9.828125 -18.894531 10.421875 -19.40625 C 10.921875 -19.820312 11.550781 -20.207031 12.3125 -20.5625 C 13.070312 -20.914062 13.957031 -21.09375 14.96875 -21.09375 C 16.007812 -21.09375 16.992188 -20.882812 17.921875 -20.46875 C 18.847656 -20.0625 19.65625 -19.484375 20.34375 -18.734375 C 21.03125 -17.992188 21.570312 -17.085938 21.96875 -16.015625 C 22.363281 -14.953125 22.5625 -13.757812 22.5625 -12.4375 L 22.5625 0 L 16.875 0 L 16.875 -11.59375 C 16.875 -12.863281 16.535156 -13.847656 15.859375 -14.546875 C 15.179688 -15.253906 14.253906 -15.609375 13.078125 -15.609375 C 11.804688 -15.609375 10.75 -15.175781 9.90625 -14.3125 C 9.0625 -13.457031 8.640625 -12.34375 8.640625 -10.96875 L 8.640625 0 L 2.953125 0 Z M 2.953125 -29.515625 "/></g></g></g><g fill="#228b22" fill-opacity="1"><g transform="translate(259.41058, 195.714109)"><g><path d="M 5.265625 8.859375 C 4.734375 8.859375 4.234375 8.828125 3.765625 8.765625 C 3.304688 8.710938 2.910156 8.644531 2.578125 8.5625 C 2.179688 8.445312 1.8125 8.332031 1.46875 8.21875 L 1.46875 2.953125 C 1.664062 3.035156 1.894531 3.101562 2.15625 3.15625 C 2.632812 3.300781 3.179688 3.375 3.796875 3.375 C 4.753906 3.375 5.515625 3.132812 6.078125 2.65625 C 6.640625 2.175781 7.070312 1.570312 7.375 0.84375 L 7.796875 -0.203125 L -0.203125 -20.671875 L 5.90625 -20.671875 L 10.75 -6.953125 L 10.96875 -6.953125 L 15.609375 -20.671875 L 21.71875 -20.671875 L 13.28125 1.6875 C 12.414062 4.019531 11.34375 5.796875 10.0625 7.015625 C 8.78125 8.242188 7.179688 8.859375 5.265625 8.859375 Z M 5.265625 8.859375 "/></g></g></g><g fill="#228b22" fill-opacity="1"><g transform="translate(280.072933, 195.714109)"><g/></g></g><g fill="#228b22" fill-opacity="1"><g transform="translate(288.084823, 195.714109)"><g><path d="M 3.796875 -29.515625 L 10.125 -29.515625 L 10.125 -5.90625 L 23.828125 -5.90625 L 23.828125 0 L 3.796875 0 Z M 3.796875 -29.515625 "/></g></g></g><g fill="#228b22" fill-opacity="1"><g transform="translate(311.909806, 195.714109)"><g><path d="M 2.734375 -20.671875 L 8.4375 -20.671875 L 8.4375 0 L 2.734375 0 Z M 5.5625 -23.40625 C 4.664062 -23.40625 3.898438 -23.71875 3.265625 -24.34375 C 2.628906 -24.976562 2.3125 -25.71875 2.3125 -26.5625 C 2.3125 -27.40625 2.632812 -28.144531 3.28125 -28.78125 C 3.9375 -29.414062 4.710938 -29.734375 5.609375 -29.734375 C 6.503906 -29.734375 7.269531 -29.414062 7.90625 -28.78125 C 8.539062 -28.144531 8.859375 -27.40625 8.859375 -26.5625 C 8.859375 -25.71875 8.535156 -24.976562 7.890625 -24.34375 C 7.242188 -23.71875 6.46875 -23.40625 5.5625 -23.40625 Z M 5.5625 -23.40625 "/></g></g></g><g fill="#228b22" fill-opacity="1"><g transform="translate(322.240947, 195.714109)"><g><path d="M 4 -14.96875 L 0.84375 -14.96875 L 0.84375 -20.25 L 4 -20.25 L 4 -22.34375 C 4 -24.789062 4.628906 -26.664062 5.890625 -27.96875 C 7.160156 -29.28125 8.851562 -29.9375 10.96875 -29.9375 C 11.5 -29.9375 11.992188 -29.898438 12.453125 -29.828125 C 12.921875 -29.765625 13.320312 -29.691406 13.65625 -29.609375 C 14.050781 -29.492188 14.421875 -29.394531 14.765625 -29.3125 L 14.765625 -24.03125 C 14.566406 -24.09375 14.335938 -24.164062 14.078125 -24.25 C 13.859375 -24.300781 13.609375 -24.347656 13.328125 -24.390625 C 13.046875 -24.429688 12.75 -24.453125 12.4375 -24.453125 C 11.59375 -24.453125 10.925781 -24.195312 10.4375 -23.6875 C 9.945312 -23.1875 9.703125 -22.457031 9.703125 -21.5 L 9.703125 -20.25 L 14.34375 -20.25 L 14.34375 -14.96875 L 9.703125 -14.96875 L 9.703125 0 L 4 0 Z M 4 -14.96875 "/></g></g></g><g fill="#228b22" fill-opacity="1"><g transform="translate(336.99975, 195.714109)"><g><path d="M 12.4375 0.421875 C 10.914062 0.421875 9.488281 0.140625 8.15625 -0.421875 C 6.820312 -0.984375 5.65625 -1.753906 4.65625 -2.734375 C 3.65625 -3.722656 2.875 -4.863281 2.3125 -6.15625 C 1.75 -7.445312 1.46875 -8.835938 1.46875 -10.328125 C 1.46875 -11.796875 1.75 -13.179688 2.3125 -14.484375 C 2.875 -15.796875 3.644531 -16.941406 4.625 -17.921875 C 5.613281 -18.910156 6.753906 -19.6875 8.046875 -20.25 C 9.347656 -20.8125 10.742188 -21.09375 12.234375 -21.09375 C 13.660156 -21.09375 15 -20.816406 16.25 -20.265625 C 17.507812 -19.710938 18.601562 -18.972656 19.53125 -18.046875 C 20.457031 -17.117188 21.191406 -16.03125 21.734375 -14.78125 C 22.285156 -13.53125 22.5625 -12.1875 22.5625 -10.75 C 22.5625 -10.351562 22.546875 -10.007812 22.515625 -9.71875 C 22.492188 -9.425781 22.46875 -9.164062 22.4375 -8.9375 C 22.40625 -8.65625 22.375 -8.414062 22.34375 -8.21875 L 7.375 -8.21875 C 7.6875 -7.269531 8.285156 -6.4375 9.171875 -5.71875 C 10.054688 -5 11.285156 -4.640625 12.859375 -4.640625 C 13.765625 -4.640625 14.550781 -4.75 15.21875 -4.96875 C 15.894531 -5.195312 16.472656 -5.46875 16.953125 -5.78125 C 17.484375 -6.113281 17.945312 -6.503906 18.34375 -6.953125 L 21.296875 -2.953125 C 20.679688 -2.335938 19.921875 -1.773438 19.015625 -1.265625 C 18.253906 -0.835938 17.328125 -0.445312 16.234375 -0.09375 C 15.140625 0.25 13.875 0.421875 12.4375 0.421875 Z M 16.65625 -12.4375 C 16.34375 -13.394531 15.785156 -14.234375 14.984375 -14.953125 C 14.191406 -15.671875 13.203125 -16.03125 12.015625 -16.03125 C 10.835938 -16.03125 9.847656 -15.671875 9.046875 -14.953125 C 8.242188 -14.234375 7.6875 -13.394531 7.375 -12.4375 Z M 16.65625 -12.4375 "/></g></g></g><g fill="#7ed957" fill-opacity="1"><g transform="translate(130.587037, 233.589138)"><g><path d="M 3.796875 -29.515625 L 16.234375 -29.515625 C 17.804688 -29.515625 19.238281 -29.269531 20.53125 -28.78125 C 21.832031 -28.289062 22.945312 -27.601562 23.875 -26.71875 C 24.800781 -25.832031 25.515625 -24.785156 26.015625 -23.578125 C 26.523438 -22.367188 26.78125 -21.046875 26.78125 -19.609375 C 26.78125 -18.171875 26.523438 -16.847656 26.015625 -15.640625 C 25.515625 -14.429688 24.800781 -13.382812 23.875 -12.5 C 22.945312 -11.613281 21.832031 -10.925781 20.53125 -10.4375 C 19.238281 -9.945312 17.804688 -9.703125 16.234375 -9.703125 L 10.125 -9.703125 L 10.125 0 L 3.796875 0 Z M 16.03125 -15.609375 C 17.289062 -15.609375 18.304688 -15.976562 19.078125 -16.71875 C 19.859375 -17.46875 20.25 -18.429688 20.25 -19.609375 C 20.25 -20.785156 19.859375 -21.742188 19.078125 -22.484375 C 18.304688 -23.234375 17.289062 -23.609375 16.03125 -23.609375 L 10.125 -23.609375 L 10.125 -15.609375 Z M 16.03125 -15.609375 "/></g></g></g><g fill="#7ed957" fill-opacity="1"><g transform="translate(158.417989, 233.589138)"><g><path d="M 2.953125 -29.515625 L 8.640625 -29.515625 L 8.640625 -17.71875 L 8.859375 -17.71875 C 9.304688 -18.332031 9.828125 -18.894531 10.421875 -19.40625 C 10.921875 -19.820312 11.550781 -20.207031 12.3125 -20.5625 C 13.070312 -20.914062 13.957031 -21.09375 14.96875 -21.09375 C 16.007812 -21.09375 16.992188 -20.882812 17.921875 -20.46875 C 18.847656 -20.0625 19.65625 -19.484375 20.34375 -18.734375 C 21.03125 -17.992188 21.570312 -17.085938 21.96875 -16.015625 C 22.363281 -14.953125 22.5625 -13.757812 22.5625 -12.4375 L 22.5625 0 L 16.875 0 L 16.875 -11.59375 C 16.875 -12.863281 16.535156 -13.847656 15.859375 -14.546875 C 15.179688 -15.253906 14.253906 -15.609375 13.078125 -15.609375 C 11.804688 -15.609375 10.75 -15.175781 9.90625 -14.3125 C 9.0625 -13.457031 8.640625 -12.34375 8.640625 -10.96875 L 8.640625 0 L 2.953125 0 Z M 2.953125 -29.515625 "/></g></g></g><g fill="#7ed957" fill-opacity="1"><g transform="translate(182.875492, 233.589138)"><g><path d="M 8.015625 0.421875 C 7.054688 0.421875 6.191406 0.273438 5.421875 -0.015625 C 4.648438 -0.316406 3.988281 -0.734375 3.4375 -1.265625 C 2.882812 -1.796875 2.453125 -2.421875 2.140625 -3.140625 C 1.835938 -3.859375 1.6875 -4.640625 1.6875 -5.484375 C 1.6875 -7.171875 2.226562 -8.609375 3.3125 -9.796875 C 4.394531 -10.992188 5.890625 -11.765625 7.796875 -12.109375 L 14.34375 -13.28125 C 14.226562 -14.007812 13.867188 -14.648438 13.265625 -15.203125 C 12.660156 -15.753906 11.820312 -16.03125 10.75 -16.03125 C 10.019531 -16.03125 9.363281 -15.910156 8.78125 -15.671875 C 8.207031 -15.429688 7.726562 -15.15625 7.34375 -14.84375 C 6.863281 -14.507812 6.453125 -14.128906 6.109375 -13.703125 L 2.734375 -17.078125 C 3.328125 -17.804688 4.046875 -18.46875 4.890625 -19.0625 C 5.617188 -19.570312 6.503906 -20.035156 7.546875 -20.453125 C 8.585938 -20.878906 9.796875 -21.09375 11.171875 -21.09375 C 12.492188 -21.09375 13.695312 -20.878906 14.78125 -20.453125 C 15.863281 -20.035156 16.796875 -19.453125 17.578125 -18.703125 C 18.367188 -17.953125 18.972656 -17.078125 19.390625 -16.078125 C 19.816406 -15.085938 20.03125 -14.015625 20.03125 -12.859375 L 20.03125 0 L 14.34375 0 L 14.34375 -2.53125 L 14.125 -2.53125 C 13.675781 -1.96875 13.15625 -1.472656 12.5625 -1.046875 C 12.0625 -0.660156 11.421875 -0.316406 10.640625 -0.015625 C 9.867188 0.273438 8.992188 0.421875 8.015625 0.421875 Z M 9.90625 -4.21875 C 11.175781 -4.21875 12.234375 -4.644531 13.078125 -5.5 C 13.921875 -6.363281 14.34375 -7.484375 14.34375 -8.859375 L 14.34375 -9.28125 L 9.703125 -8.4375 C 8.972656 -8.289062 8.398438 -8.035156 7.984375 -7.671875 C 7.578125 -7.304688 7.375 -6.859375 7.375 -6.328125 C 7.375 -5.679688 7.582031 -5.164062 8 -4.78125 C 8.425781 -4.40625 9.0625 -4.21875 9.90625 -4.21875 Z M 9.90625 -4.21875 "/></g></g></g><g fill="#7ed957" fill-opacity="1"><g transform="translate(204.802904, 233.589138)"><g><path d="M 2.734375 -20.671875 L 8.4375 -20.671875 L 8.4375 -17.71875 L 8.640625 -17.71875 C 9.085938 -18.332031 9.609375 -18.894531 10.203125 -19.40625 C 10.710938 -19.820312 11.34375 -20.207031 12.09375 -20.5625 C 12.851562 -20.914062 13.742188 -21.09375 14.765625 -21.09375 L 15.1875 -21.09375 L 15.1875 -14.96875 C 15.039062 -15 14.882812 -15.03125 14.71875 -15.0625 C 14.550781 -15.082031 14.347656 -15.109375 14.109375 -15.140625 C 13.867188 -15.171875 13.59375 -15.1875 13.28125 -15.1875 C 11.90625 -15.1875 10.753906 -14.691406 9.828125 -13.703125 C 8.898438 -12.722656 8.4375 -11.390625 8.4375 -9.703125 L 8.4375 0 L 2.734375 0 Z M 2.734375 -20.671875 "/></g></g></g><g fill="#7ed957" fill-opacity="1"><g transform="translate(219.983384, 233.589138)"><g><path d="M 2.734375 -20.671875 L 8.4375 -20.671875 L 8.4375 -17.71875 L 8.640625 -17.71875 C 9.003906 -18.332031 9.457031 -18.894531 10 -19.40625 C 10.476562 -19.820312 11.066406 -20.207031 11.765625 -20.5625 C 12.460938 -20.914062 13.320312 -21.09375 14.34375 -21.09375 C 15.4375 -21.09375 16.375 -20.898438 17.15625 -20.515625 C 17.945312 -20.140625 18.582031 -19.722656 19.0625 -19.265625 C 19.625 -18.765625 20.085938 -18.175781 20.453125 -17.5 L 20.671875 -17.5 C 21.140625 -18.175781 21.710938 -18.765625 22.390625 -19.265625 C 22.953125 -19.722656 23.644531 -20.140625 24.46875 -20.515625 C 25.300781 -20.898438 26.28125 -21.09375 27.40625 -21.09375 C 28.425781 -21.09375 29.367188 -20.898438 30.234375 -20.515625 C 31.109375 -20.140625 31.867188 -19.59375 32.515625 -18.875 C 33.160156 -18.15625 33.664062 -17.289062 34.03125 -16.28125 C 34.394531 -15.269531 34.578125 -14.128906 34.578125 -12.859375 L 34.578125 0 L 28.890625 0 L 28.890625 -12.015625 C 28.890625 -13.203125 28.59375 -14.097656 28 -14.703125 C 27.40625 -15.304688 26.578125 -15.609375 25.515625 -15.609375 C 24.335938 -15.609375 23.375 -15.21875 22.625 -14.4375 C 21.875 -13.664062 21.5 -12.648438 21.5 -11.390625 L 21.5 0 L 15.8125 0 L 15.8125 -12.015625 C 15.8125 -13.203125 15.515625 -14.097656 14.921875 -14.703125 C 14.335938 -15.304688 13.507812 -15.609375 12.4375 -15.609375 C 11.257812 -15.609375 10.296875 -15.21875 9.546875 -14.4375 C 8.804688 -13.664062 8.4375 -12.648438 8.4375 -11.390625 L 8.4375 0 L 2.734375 0 Z M 2.734375 -20.671875 "/></g></g></g><g fill="#7ed957" fill-opacity="1"><g transform="translate(256.458829, 233.589138)"><g><path d="M 8.015625 0.421875 C 7.054688 0.421875 6.191406 0.273438 5.421875 -0.015625 C 4.648438 -0.316406 3.988281 -0.734375 3.4375 -1.265625 C 2.882812 -1.796875 2.453125 -2.421875 2.140625 -3.140625 C 1.835938 -3.859375 1.6875 -4.640625 1.6875 -5.484375 C 1.6875 -7.171875 2.226562 -8.609375 3.3125 -9.796875 C 4.394531 -10.992188 5.890625 -11.765625 7.796875 -12.109375 L 14.34375 -13.28125 C 14.226562 -14.007812 13.867188 -14.648438 13.265625 -15.203125 C 12.660156 -15.753906 11.820312 -16.03125 10.75 -16.03125 C 10.019531 -16.03125 9.363281 -15.910156 8.78125 -15.671875 C 8.207031 -15.429688 7.726562 -15.15625 7.34375 -14.84375 C 6.863281 -14.507812 6.453125 -14.128906 6.109375 -13.703125 L 2.734375 -17.078125 C 3.328125 -17.804688 4.046875 -18.46875 4.890625 -19.0625 C 5.617188 -19.570312 6.503906 -20.035156 7.546875 -20.453125 C 8.585938 -20.878906 9.796875 -21.09375 11.171875 -21.09375 C 12.492188 -21.09375 13.695312 -20.878906 14.78125 -20.453125 C 15.863281 -20.035156 16.796875 -19.453125 17.578125 -18.703125 C 18.367188 -17.953125 18.972656 -17.078125 19.390625 -16.078125 C 19.816406 -15.085938 20.03125 -14.015625 20.03125 -12.859375 L 20.03125 0 L 14.34375 0 L 14.34375 -2.53125 L 14.125 -2.53125 C 13.675781 -1.96875 13.15625 -1.472656 12.5625 -1.046875 C 12.0625 -0.660156 11.421875 -0.316406 10.640625 -0.015625 C 9.867188 0.273438 8.992188 0.421875 8.015625 0.421875 Z M 9.90625 -4.21875 C 11.175781 -4.21875 12.234375 -4.644531 13.078125 -5.5 C 13.921875 -6.363281 14.34375 -7.484375 14.34375 -8.859375 L 14.34375 -9.28125 L 9.703125 -8.4375 C 8.972656 -8.289062 8.398438 -8.035156 7.984375 -7.671875 C 7.578125 -7.304688 7.375 -6.859375 7.375 -6.328125 C 7.375 -5.679688 7.582031 -5.164062 8 -4.78125 C 8.425781 -4.40625 9.0625 -4.21875 9.90625 -4.21875 Z M 9.90625 -4.21875 "/></g></g></g><g fill="#7ed957" fill-opacity="1"><g transform="translate(278.386244, 233.589138)"><g><path d="M 12.4375 0.421875 C 10.914062 0.421875 9.488281 0.140625 8.15625 -0.421875 C 6.820312 -0.984375 5.65625 -1.753906 4.65625 -2.734375 C 3.65625 -3.722656 2.875 -4.863281 2.3125 -6.15625 C 1.75 -7.445312 1.46875 -8.835938 1.46875 -10.328125 C 1.46875 -11.796875 1.75 -13.179688 2.3125 -14.484375 C 2.875 -15.796875 3.65625 -16.941406 4.65625 -17.921875 C 5.65625 -18.910156 6.820312 -19.6875 8.15625 -20.25 C 9.488281 -20.8125 10.914062 -21.09375 12.4375 -21.09375 C 13.925781 -21.09375 15.203125 -20.875 16.265625 -20.4375 C 17.335938 -20 18.242188 -19.515625 18.984375 -18.984375 C 19.828125 -18.359375 20.53125 -17.65625 21.09375 -16.875 L 17.5 -13.28125 C 17.101562 -13.757812 16.65625 -14.179688 16.15625 -14.546875 C 15.707031 -14.859375 15.171875 -15.144531 14.546875 -15.40625 C 13.929688 -15.675781 13.226562 -15.8125 12.4375 -15.8125 C 11.707031 -15.8125 11.019531 -15.671875 10.375 -15.390625 C 9.726562 -15.109375 9.164062 -14.726562 8.6875 -14.25 C 8.207031 -13.769531 7.832031 -13.191406 7.5625 -12.515625 C 7.300781 -11.847656 7.171875 -11.117188 7.171875 -10.328125 C 7.171875 -9.546875 7.300781 -8.816406 7.5625 -8.140625 C 7.832031 -7.460938 8.207031 -6.882812 8.6875 -6.40625 C 9.164062 -5.925781 9.726562 -5.546875 10.375 -5.265625 C 11.019531 -4.984375 11.707031 -4.84375 12.4375 -4.84375 C 13.226562 -4.84375 13.929688 -4.976562 14.546875 -5.25 C 15.171875 -5.519531 15.707031 -5.804688 16.15625 -6.109375 C 16.65625 -6.472656 17.101562 -6.894531 17.5 -7.375 L 21.09375 -3.796875 C 20.53125 -3.003906 19.828125 -2.300781 18.984375 -1.6875 C 18.242188 -1.15625 17.335938 -0.671875 16.265625 -0.234375 C 15.203125 0.203125 13.925781 0.421875 12.4375 0.421875 Z M 12.4375 0.421875 "/></g></g></g><g fill="#7ed957" fill-opacity="1"><g transform="translate(299.47029, 233.589138)"><g><path d="M 5.265625 8.859375 C 4.734375 8.859375 4.234375 8.828125 3.765625 8.765625 C 3.304688 8.710938 2.910156 8.644531 2.578125 8.5625 C 2.179688 8.445312 1.8125 8.332031 1.46875 8.21875 L 1.46875 2.953125 C 1.664062 3.035156 1.894531 3.101562 2.15625 3.15625 C 2.632812 3.300781 3.179688 3.375 3.796875 3.375 C 4.753906 3.375 5.515625 3.132812 6.078125 2.65625 C 6.640625 2.175781 7.070312 1.570312 7.375 0.84375 L 7.796875 -0.203125 L -0.203125 -20.671875 L 5.90625 -20.671875 L 10.75 -6.953125 L 10.96875 -6.953125 L 15.609375 -20.671875 L 21.71875 -20.671875 L 13.28125 1.6875 C 12.414062 4.019531 11.34375 5.796875 10.0625 7.015625 C 8.78125 8.242188 7.179688 8.859375 5.265625 8.859375 Z M 5.265625 8.859375 "/></g></g></g></svg>